<svg width="50" height="50" viewBox="0 0 50 50" fill="none" xmlns="http://www.w3.org/2000/svg">
<path d="M18.6697 48.3866V44.3615C15.3691 44.8778 13.7546 44.6537 11.5775 42.7344C10.7273 42.0998 10.1811 41.0374 9.76207 39.5657C9.58333 38.8373 9.05905 38.0649 6.65461 35.8832C9.00581 35.4412 10.0881 35.9988 11.5775 38.538C14.1584 41.5197 15.826 41.6387 19.0035 40.4221C19.0406 39.0855 19.1778 38.3439 20.3385 37.0821C14.3563 36.2819 12.0791 34.6383 9.82526 29.6315C8.57123 24.2375 8.77263 21.2202 11.5775 17.4706C11.0175 14.7608 11.1013 13.2472 11.9112 10.5337C15.0161 10.8372 16.3644 11.5977 18.6697 13.1029C23.8069 12.0198 26.5288 12.2033 31.2689 13.1029C33.8664 11.3204 35.3497 10.7472 38.1108 10.5337C39.1318 13.25 39.1248 14.768 38.528 17.4706C40.9168 20.5049 41.1505 22.914 40.8643 27.6617C39.1667 33.4856 37.0445 35.8096 29.6835 37.0821C31.5265 38.9907 31.3519 42.5342 31.2689 48.3866C31.2131 50.0028 31.7367 50.2144 33.2714 49.8425C42.3268 45.6977 46.3769 42.0759 49.5418 30.4879C50.4979 20.9202 50.4776 15.595 44.2288 7.96462C38.1677 1.95962 33.4045 0.335124 24.8441 0C15.9591 0.643645 10.9634 2.15361 5.62095 7.96462C-0.563613 15.416 -0.474247 20.7458 0.480183 30.4879C3.4163 41.5659 7.75493 45.902 16.6672 49.8425C18.6093 50.2173 18.7994 49.6966 18.6697 48.3866Z" fill="#18303D"/>
</svg>
