<svg width="32" height="31" viewBox="0 0 32 31" fill="none" xmlns="http://www.w3.org/2000/svg">
<path d="M0.414773 31V9.18182H6.46591V31H0.414773ZM3.45455 6.36932C2.55492 6.36932 1.78314 6.07102 1.1392 5.47443C0.504735 4.86837 0.1875 4.14394 0.1875 3.30114C0.1875 2.4678 0.504735 1.75284 1.1392 1.15625C1.78314 0.550188 2.55492 0.247158 3.45455 0.247158C4.35417 0.247158 5.12121 0.550188 5.75568 1.15625C6.39962 1.75284 6.72159 2.4678 6.72159 3.30114C6.72159 4.14394 6.39962 4.86837 5.75568 5.47443C5.12121 6.07102 4.35417 6.36932 3.45455 6.36932ZM17.3643 18.3864V31H11.3132V9.18182H17.0803V13.0312H17.3359C17.8189 11.7623 18.6286 10.7585 19.7649 10.0199C20.9013 9.27178 22.2791 8.89773 23.8984 8.89773C25.4136 8.89773 26.7346 9.22917 27.8615 9.89205C28.9884 10.5549 29.8643 11.5019 30.4893 12.733C31.1143 13.9545 31.4268 15.4129 31.4268 17.108V31H25.3757V18.1875C25.3852 16.8523 25.0443 15.8106 24.353 15.0625C23.6617 14.3049 22.71 13.9261 21.4979 13.9261C20.6835 13.9261 19.9638 14.1013 19.3388 14.4517C18.7232 14.8021 18.2403 15.3134 17.8899 15.9858C17.549 16.6487 17.3738 17.4489 17.3643 18.3864Z" fill="#18303D"/>
</svg>
